name rise49.25peak52.1432fall72.8391.mot
datacolumns 19
datarows 12
range 3.13999100000000 3.15831600000000
endheader
time	ground_force1_vx	ground_force1_vy	ground_force1_vz	ground_force1_px	ground_force1_py	ground_force1_pz	ground_force2_vx	ground_force2_vy	ground_force2_vz	ground_force2_px	ground_force2_py	ground_force2_pz	ground_torque1_x	ground_torque1_y	ground_torque1_z	ground_torque2_x	ground_torque2_y	ground_torque2_z	
3.13999100000000	15.07808500000000	713.92043699999999	45.13279400000000	0.25189800000000	0.00000000000000	0.11766800000000	0.00000000000000	0.00000000000000	0.00000000000000	0.00000000000000	0.00000000000000	0.00000000000000	0.00000000000000	19.89403100000000	0.00000000000000	0.00000000000000	0.00000000000000	0.00000000000000	
3.14165200000000	14.75102000000000	714.80932499999994	45.15637000000000	0.25156500000000	0.00000000000000	0.11757600000000	0.00000000000000	0.00000000000000	0.00000000000000	0.00000000000000	0.00000000000000	0.00000000000000	0.00000000000000	19.95390100000000	0.00000000000000	0.00000000000000	0.00000000000000	0.00000000000000	
3.14331800000000	14.41421600000000	715.69644200000005	45.18083000000000	0.25120800000000	0.00000000000000	0.11748400000000	0.00000000000000	0.00000000000000	0.00000000000000	0.00000000000000	0.00000000000000	0.00000000000000	0.00000000000000	20.01572200000000	0.00000000000000	0.00000000000000	0.00000000000000	0.00000000000000	
3.14498700000000	14.06738300000000	716.58092299999998	45.20601300000000	0.25082700000000	0.00000000000000	0.11739300000000	0.00000000000000	0.00000000000000	0.00000000000000	0.00000000000000	0.00000000000000	0.00000000000000	0.00000000000000	20.07938400000000	0.00000000000000	0.00000000000000	0.00000000000000	0.00000000000000	
3.14665900000000	13.71026400000000	717.46202500000004	45.23177300000000	0.25041700000000	0.00000000000000	0.11730300000000	0.00000000000000	0.00000000000000	0.00000000000000	0.00000000000000	0.00000000000000	0.00000000000000	0.00000000000000	20.14478000000000	0.00000000000000	0.00000000000000	0.00000000000000	0.00000000000000	
3.14832000000000	13.34264000000000	718.33911899999998	45.25797600000000	0.24997800000000	0.00000000000000	0.11721300000000	0.00000000000000	0.00000000000000	0.00000000000000	0.00000000000000	0.00000000000000	0.00000000000000	0.00000000000000	20.21181300000000	0.00000000000000	0.00000000000000	0.00000000000000	0.00000000000000	
3.14998600000000	12.96432900000000	719.21169299999997	45.28450400000000	0.24950500000000	0.00000000000000	0.11712500000000	0.00000000000000	0.00000000000000	0.00000000000000	0.00000000000000	0.00000000000000	0.00000000000000	0.00000000000000	20.28038800000000	0.00000000000000	0.00000000000000	0.00000000000000	0.00000000000000	
3.15165000000000	12.57518500000000	720.07934200000000	45.31125300000000	0.24899900000000	0.00000000000000	0.11703800000000	0.00000000000000	0.00000000000000	0.00000000000000	0.00000000000000	0.00000000000000	0.00000000000000	0.00000000000000	20.35042100000000	0.00000000000000	0.00000000000000	0.00000000000000	0.00000000000000	
3.15331700000000	12.17510300000000	720.94176800000002	45.33813300000000	0.24845700000000	0.00000000000000	0.11695200000000	0.00000000000000	0.00000000000000	0.00000000000000	0.00000000000000	0.00000000000000	0.00000000000000	0.00000000000000	20.42183200000000	0.00000000000000	0.00000000000000	0.00000000000000	0.00000000000000	
3.15500600000000	11.76401300000000	721.79877499999998	45.36506900000000	0.24787700000000	0.00000000000000	0.11686800000000	0.00000000000000	0.00000000000000	0.00000000000000	0.00000000000000	0.00000000000000	0.00000000000000	0.00000000000000	20.49454900000000	0.00000000000000	0.00000000000000	0.00000000000000	0.00000000000000	
3.15665000000000	11.34188900000000	722.65026399999999	45.39200000000000	0.24725800000000	0.00000000000000	0.11678600000000	0.00000000000000	0.00000000000000	0.00000000000000	0.00000000000000	0.00000000000000	0.00000000000000	0.00000000000000	20.56850700000000	0.00000000000000	0.00000000000000	0.00000000000000	0.00000000000000	
3.15831600000000	10.90874100000000	723.49622599999998	45.41887900000000	0.24660000000000	0.00000000000000	0.11670500000000	0.00000000000000	0.00000000000000	0.00000000000000	0.00000000000000	0.00000000000000	0.00000000000000	0.00000000000000	20.64364500000000	0.00000000000000	0.00000000000000	0.00000000000000	0.00000000000000	
